<mxfile host="app.diagrams.net" agent="Mozilla/5.0 (Macintosh; Intel Mac OS X 10_15_7) AppleWebKit/537.36 (KHTML, like Gecko) Chrome/135.0.0.0 Safari/537.36" version="26.2.13">
  <diagram name="페이지-1" id="oCVioeKz5SW455MYKBlw">
    <mxGraphModel dx="1680" dy="941" grid="0" gridSize="10" guides="1" tooltips="1" connect="1" arrows="1" fold="1" page="1" pageScale="1" pageWidth="1600" pageHeight="1400" background="none" math="0" shadow="0">
      <root>
        <mxCell id="0" />
        <mxCell id="1" parent="0" />
        <mxCell id="IwtM4HSSWSZ5z5dpLfm0-115" value="" style="rounded=1;whiteSpace=wrap;html=1;dashed=1;fillColor=none;arcSize=3;dashPattern=1 1;movable=1;resizable=1;rotatable=1;deletable=1;editable=1;locked=0;connectable=1;" parent="1" vertex="1">
          <mxGeometry x="69" y="8" width="1490" height="971" as="geometry" />
        </mxCell>
        <mxCell id="_8GRGcNNE5g4Zsb68gkF-6" value="Log System" style="rounded=1;whiteSpace=wrap;html=1;dashed=1;arcSize=6;verticalAlign=top;" vertex="1" parent="1">
          <mxGeometry x="1305" y="777.25" width="196" height="155.5" as="geometry" />
        </mxCell>
        <mxCell id="IwtM4HSSWSZ5z5dpLfm0-125" value="Databases" style="rounded=1;whiteSpace=wrap;html=1;dashed=1;arcSize=6;verticalAlign=top;" parent="1" vertex="1">
          <mxGeometry x="615" y="564" width="183" height="225" as="geometry" />
        </mxCell>
        <mxCell id="_8GRGcNNE5g4Zsb68gkF-7" style="edgeStyle=orthogonalEdgeStyle;rounded=0;orthogonalLoop=1;jettySize=auto;html=1;entryX=0;entryY=0.5;entryDx=0;entryDy=0;" edge="1" parent="1" source="IwtM4HSSWSZ5z5dpLfm0-90" target="_8GRGcNNE5g4Zsb68gkF-6">
          <mxGeometry relative="1" as="geometry" />
        </mxCell>
        <mxCell id="IwtM4HSSWSZ5z5dpLfm0-90" value="" style="rounded=1;whiteSpace=wrap;html=1;dashed=1;" parent="1" vertex="1">
          <mxGeometry x="857" y="760" width="380" height="190" as="geometry" />
        </mxCell>
        <mxCell id="IwtM4HSSWSZ5z5dpLfm0-79" style="edgeStyle=orthogonalEdgeStyle;rounded=0;orthogonalLoop=1;jettySize=auto;html=1;entryX=1;entryY=0.5;entryDx=0;entryDy=0;" parent="1" source="IwtM4HSSWSZ5z5dpLfm0-72" target="IwtM4HSSWSZ5z5dpLfm0-37" edge="1">
          <mxGeometry relative="1" as="geometry">
            <Array as="points">
              <mxPoint x="1507" y="510" />
              <mxPoint x="1507" y="640" />
            </Array>
          </mxGeometry>
        </mxCell>
        <mxCell id="IwtM4HSSWSZ5z5dpLfm0-80" value="Put revision &amp;amp; Apply" style="edgeLabel;html=1;align=center;verticalAlign=middle;resizable=0;points=[];" parent="IwtM4HSSWSZ5z5dpLfm0-79" vertex="1" connectable="0">
          <mxGeometry x="0.1079" y="-1" relative="1" as="geometry">
            <mxPoint x="-84" y="1" as="offset" />
          </mxGeometry>
        </mxCell>
        <mxCell id="IwtM4HSSWSZ5z5dpLfm0-72" value="Create Service Definitaions" style="shape=process;whiteSpace=wrap;html=1;backgroundOutline=1;verticalAlign=top;size=0.05405405405405406;" parent="1" vertex="1">
          <mxGeometry x="1227" y="405" width="220" height="210" as="geometry" />
        </mxCell>
        <mxCell id="IwtM4HSSWSZ5z5dpLfm0-55" style="edgeStyle=orthogonalEdgeStyle;rounded=0;orthogonalLoop=1;jettySize=auto;html=1;entryX=0;entryY=0.5;entryDx=0;entryDy=0;" parent="1" source="IwtM4HSSWSZ5z5dpLfm0-1" target="IwtM4HSSWSZ5z5dpLfm0-50" edge="1">
          <mxGeometry relative="1" as="geometry" />
        </mxCell>
        <mxCell id="IwtM4HSSWSZ5z5dpLfm0-97" style="edgeStyle=orthogonalEdgeStyle;rounded=0;orthogonalLoop=1;jettySize=auto;html=1;entryX=0.5;entryY=1;entryDx=0;entryDy=0;dashed=1;" parent="1" source="IwtM4HSSWSZ5z5dpLfm0-1" target="IwtM4HSSWSZ5z5dpLfm0-96" edge="1">
          <mxGeometry relative="1" as="geometry" />
        </mxCell>
        <mxCell id="IwtM4HSSWSZ5z5dpLfm0-104" value="create" style="edgeLabel;html=1;align=center;verticalAlign=middle;resizable=0;points=[];" parent="IwtM4HSSWSZ5z5dpLfm0-97" vertex="1" connectable="0">
          <mxGeometry x="-0.0471" relative="1" as="geometry">
            <mxPoint as="offset" />
          </mxGeometry>
        </mxCell>
        <mxCell id="IwtM4HSSWSZ5z5dpLfm0-102" style="edgeStyle=orthogonalEdgeStyle;rounded=0;orthogonalLoop=1;jettySize=auto;html=1;dashed=1;" parent="1" source="IwtM4HSSWSZ5z5dpLfm0-1" target="IwtM4HSSWSZ5z5dpLfm0-100" edge="1">
          <mxGeometry relative="1" as="geometry" />
        </mxCell>
        <mxCell id="IwtM4HSSWSZ5z5dpLfm0-103" value="create" style="edgeLabel;html=1;align=center;verticalAlign=middle;resizable=0;points=[];" parent="IwtM4HSSWSZ5z5dpLfm0-102" vertex="1" connectable="0">
          <mxGeometry x="-0.0235" y="-1" relative="1" as="geometry">
            <mxPoint as="offset" />
          </mxGeometry>
        </mxCell>
        <mxCell id="IwtM4HSSWSZ5z5dpLfm0-1" value="Create Infra" style="ellipse;whiteSpace=wrap;html=1;" parent="1" vertex="1">
          <mxGeometry x="387" y="470" width="120" height="80" as="geometry" />
        </mxCell>
        <mxCell id="IwtM4HSSWSZ5z5dpLfm0-13" style="edgeStyle=orthogonalEdgeStyle;rounded=0;orthogonalLoop=1;jettySize=auto;html=1;" parent="1" source="IwtM4HSSWSZ5z5dpLfm0-2" target="IwtM4HSSWSZ5z5dpLfm0-12" edge="1">
          <mxGeometry relative="1" as="geometry" />
        </mxCell>
        <mxCell id="IwtM4HSSWSZ5z5dpLfm0-2" value="Build" style="shape=umlActor;verticalLabelPosition=bottom;verticalAlign=top;html=1;outlineConnect=0;" parent="1" vertex="1">
          <mxGeometry x="687" y="190" width="30" height="60" as="geometry" />
        </mxCell>
        <mxCell id="IwtM4HSSWSZ5z5dpLfm0-19" style="edgeStyle=orthogonalEdgeStyle;rounded=0;orthogonalLoop=1;jettySize=auto;html=1;entryX=0;entryY=0.5;entryDx=0;entryDy=0;" parent="1" source="IwtM4HSSWSZ5z5dpLfm0-3" target="IwtM4HSSWSZ5z5dpLfm0-1" edge="1">
          <mxGeometry relative="1" as="geometry" />
        </mxCell>
        <mxCell id="IwtM4HSSWSZ5z5dpLfm0-68" value="&lt;span style=&quot;background-color: rgb(255, 204, 153);&quot;&gt;Run Terraform:init&lt;/span&gt;" style="edgeLabel;html=1;align=center;verticalAlign=middle;resizable=0;points=[];" parent="IwtM4HSSWSZ5z5dpLfm0-19" vertex="1" connectable="0">
          <mxGeometry x="-0.05" y="4" relative="1" as="geometry">
            <mxPoint as="offset" />
          </mxGeometry>
        </mxCell>
        <mxCell id="IwtM4HSSWSZ5z5dpLfm0-3" value="" style="shape=umlActor;verticalLabelPosition=bottom;verticalAlign=top;html=1;outlineConnect=0;" parent="1" vertex="1">
          <mxGeometry x="180" y="480" width="30" height="60" as="geometry" />
        </mxCell>
        <mxCell id="IwtM4HSSWSZ5z5dpLfm0-41" style="edgeStyle=orthogonalEdgeStyle;rounded=0;orthogonalLoop=1;jettySize=auto;html=1;" parent="1" source="IwtM4HSSWSZ5z5dpLfm0-10" target="IwtM4HSSWSZ5z5dpLfm0-71" edge="1">
          <mxGeometry relative="1" as="geometry">
            <mxPoint x="1087" y="470" as="targetPoint" />
          </mxGeometry>
        </mxCell>
        <mxCell id="IwtM4HSSWSZ5z5dpLfm0-47" value="get image" style="edgeLabel;html=1;align=center;verticalAlign=middle;resizable=0;points=[];" parent="IwtM4HSSWSZ5z5dpLfm0-41" vertex="1" connectable="0">
          <mxGeometry x="-0.0714" y="-1" relative="1" as="geometry">
            <mxPoint x="-49" y="-1" as="offset" />
          </mxGeometry>
        </mxCell>
        <mxCell id="IwtM4HSSWSZ5z5dpLfm0-10" value="ECR" style="shape=cylinder3;whiteSpace=wrap;html=1;boundedLbl=1;backgroundOutline=1;size=15;" parent="1" vertex="1">
          <mxGeometry x="837" y="320" width="60" height="80" as="geometry" />
        </mxCell>
        <mxCell id="IwtM4HSSWSZ5z5dpLfm0-32" style="edgeStyle=orthogonalEdgeStyle;rounded=0;orthogonalLoop=1;jettySize=auto;html=1;" parent="1" source="IwtM4HSSWSZ5z5dpLfm0-12" target="IwtM4HSSWSZ5z5dpLfm0-71" edge="1">
          <mxGeometry relative="1" as="geometry">
            <mxPoint x="1087" y="470" as="targetPoint" />
          </mxGeometry>
        </mxCell>
        <mxCell id="IwtM4HSSWSZ5z5dpLfm0-69" value="&lt;span style=&quot;background-color: rgb(185, 224, 165);&quot;&gt;Run Terraform:deploy&lt;/span&gt;" style="edgeLabel;html=1;align=center;verticalAlign=middle;resizable=0;points=[];" parent="IwtM4HSSWSZ5z5dpLfm0-32" vertex="1" connectable="0">
          <mxGeometry x="-0.5982" y="1" relative="1" as="geometry">
            <mxPoint as="offset" />
          </mxGeometry>
        </mxCell>
        <mxCell id="IwtM4HSSWSZ5z5dpLfm0-12" value="" style="shape=image;html=1;verticalAlign=top;verticalLabelPosition=bottom;labelBackgroundColor=#ffffff;imageAspect=0;aspect=fixed;image=https://cdn0.iconfinder.com/data/icons/phosphor-thin-vol-3/256/gitlab-logo-simple-thin-128.png" parent="1" vertex="1">
          <mxGeometry x="830" y="183" width="74" height="74" as="geometry" />
        </mxCell>
        <mxCell id="IwtM4HSSWSZ5z5dpLfm0-15" style="edgeStyle=orthogonalEdgeStyle;rounded=0;orthogonalLoop=1;jettySize=auto;html=1;" parent="1" source="IwtM4HSSWSZ5z5dpLfm0-12" target="IwtM4HSSWSZ5z5dpLfm0-10" edge="1">
          <mxGeometry relative="1" as="geometry" />
        </mxCell>
        <mxCell id="IwtM4HSSWSZ5z5dpLfm0-16" value="push" style="edgeLabel;html=1;align=center;verticalAlign=middle;resizable=0;points=[];" parent="IwtM4HSSWSZ5z5dpLfm0-15" vertex="1" connectable="0">
          <mxGeometry x="-0.283" relative="1" as="geometry">
            <mxPoint as="offset" />
          </mxGeometry>
        </mxCell>
        <mxCell id="IwtM4HSSWSZ5z5dpLfm0-25" style="edgeStyle=orthogonalEdgeStyle;rounded=0;orthogonalLoop=1;jettySize=auto;html=1;dashed=1;curved=1;exitX=0;exitY=0;exitDx=0;exitDy=0;" parent="1" source="IwtM4HSSWSZ5z5dpLfm0-23" target="IwtM4HSSWSZ5z5dpLfm0-10" edge="1">
          <mxGeometry relative="1" as="geometry">
            <Array as="points">
              <mxPoint x="825" y="430" />
              <mxPoint x="787" y="430" />
              <mxPoint x="787" y="360" />
            </Array>
          </mxGeometry>
        </mxCell>
        <mxCell id="IwtM4HSSWSZ5z5dpLfm0-45" value="create" style="edgeLabel;html=1;align=center;verticalAlign=middle;resizable=0;points=[];" parent="IwtM4HSSWSZ5z5dpLfm0-25" vertex="1" connectable="0">
          <mxGeometry x="-0.0571" y="3" relative="1" as="geometry">
            <mxPoint y="-30" as="offset" />
          </mxGeometry>
        </mxCell>
        <mxCell id="IwtM4HSSWSZ5z5dpLfm0-60" style="edgeStyle=orthogonalEdgeStyle;rounded=0;orthogonalLoop=1;jettySize=auto;html=1;" parent="1" source="IwtM4HSSWSZ5z5dpLfm0-23" target="IwtM4HSSWSZ5z5dpLfm0-71" edge="1">
          <mxGeometry relative="1" as="geometry">
            <mxPoint x="1027" y="510" as="targetPoint" />
          </mxGeometry>
        </mxCell>
        <mxCell id="IwtM4HSSWSZ5z5dpLfm0-61" style="edgeStyle=orthogonalEdgeStyle;rounded=0;orthogonalLoop=1;jettySize=auto;html=1;dashed=1;curved=1;" parent="1" source="IwtM4HSSWSZ5z5dpLfm0-23" target="IwtM4HSSWSZ5z5dpLfm0-37" edge="1">
          <mxGeometry relative="1" as="geometry">
            <Array as="points">
              <mxPoint x="877" y="640" />
            </Array>
          </mxGeometry>
        </mxCell>
        <mxCell id="IwtM4HSSWSZ5z5dpLfm0-63" value="create" style="edgeLabel;html=1;align=center;verticalAlign=middle;resizable=0;points=[];" parent="IwtM4HSSWSZ5z5dpLfm0-61" vertex="1" connectable="0">
          <mxGeometry x="-0.3059" relative="1" as="geometry">
            <mxPoint y="-38" as="offset" />
          </mxGeometry>
        </mxCell>
        <mxCell id="IwtM4HSSWSZ5z5dpLfm0-23" value="Create ECR / ECS" style="ellipse;whiteSpace=wrap;html=1;" parent="1" vertex="1">
          <mxGeometry x="791" y="470" width="120" height="80" as="geometry" />
        </mxCell>
        <mxCell id="IwtM4HSSWSZ5z5dpLfm0-29" style="edgeStyle=orthogonalEdgeStyle;rounded=0;orthogonalLoop=1;jettySize=auto;html=1;" parent="1" source="IwtM4HSSWSZ5z5dpLfm0-28" target="IwtM4HSSWSZ5z5dpLfm0-12" edge="1">
          <mxGeometry relative="1" as="geometry" />
        </mxCell>
        <mxCell id="IwtM4HSSWSZ5z5dpLfm0-28" value="Deploy" style="shape=umlActor;verticalLabelPosition=bottom;verticalAlign=top;html=1;outlineConnect=0;" parent="1" vertex="1">
          <mxGeometry x="687" y="90" width="30" height="60" as="geometry" />
        </mxCell>
        <mxCell id="IwtM4HSSWSZ5z5dpLfm0-91" value="Deploy" style="edgeStyle=orthogonalEdgeStyle;rounded=0;orthogonalLoop=1;jettySize=auto;html=1;entryX=0.5;entryY=0;entryDx=0;entryDy=0;" parent="1" source="IwtM4HSSWSZ5z5dpLfm0-37" target="IwtM4HSSWSZ5z5dpLfm0-90" edge="1">
          <mxGeometry relative="1" as="geometry" />
        </mxCell>
        <mxCell id="IwtM4HSSWSZ5z5dpLfm0-37" value="ECS" style="rounded=1;whiteSpace=wrap;html=1;" parent="1" vertex="1">
          <mxGeometry x="987" y="610" width="120" height="60" as="geometry" />
        </mxCell>
        <mxCell id="IwtM4HSSWSZ5z5dpLfm0-56" style="edgeStyle=orthogonalEdgeStyle;rounded=0;orthogonalLoop=1;jettySize=auto;html=1;entryX=0;entryY=0.5;entryDx=0;entryDy=0;" parent="1" source="IwtM4HSSWSZ5z5dpLfm0-50" target="IwtM4HSSWSZ5z5dpLfm0-23" edge="1">
          <mxGeometry relative="1" as="geometry" />
        </mxCell>
        <mxCell id="IwtM4HSSWSZ5z5dpLfm0-50" value="Create Database" style="ellipse;whiteSpace=wrap;html=1;" parent="1" vertex="1">
          <mxGeometry x="589" y="470" width="120" height="80" as="geometry" />
        </mxCell>
        <mxCell id="IwtM4HSSWSZ5z5dpLfm0-51" value="RDB" style="shape=cylinder3;whiteSpace=wrap;html=1;boundedLbl=1;backgroundOutline=1;size=15;" parent="1" vertex="1">
          <mxGeometry x="677" y="601" width="60" height="80" as="geometry" />
        </mxCell>
        <mxCell id="IwtM4HSSWSZ5z5dpLfm0-52" value="DocDB" style="shape=cylinder3;whiteSpace=wrap;html=1;boundedLbl=1;backgroundOutline=1;size=15;" parent="1" vertex="1">
          <mxGeometry x="677" y="691" width="60" height="80" as="geometry" />
        </mxCell>
        <mxCell id="IwtM4HSSWSZ5z5dpLfm0-53" style="edgeStyle=orthogonalEdgeStyle;rounded=0;orthogonalLoop=1;jettySize=auto;html=1;entryX=0;entryY=0.5;entryDx=0;entryDy=0;entryPerimeter=0;dashed=1;curved=1;" parent="1" source="IwtM4HSSWSZ5z5dpLfm0-50" target="IwtM4HSSWSZ5z5dpLfm0-51" edge="1">
          <mxGeometry relative="1" as="geometry" />
        </mxCell>
        <mxCell id="IwtM4HSSWSZ5z5dpLfm0-54" style="edgeStyle=orthogonalEdgeStyle;rounded=0;orthogonalLoop=1;jettySize=auto;html=1;entryX=0;entryY=0.5;entryDx=0;entryDy=0;entryPerimeter=0;dashed=1;curved=1;" parent="1" source="IwtM4HSSWSZ5z5dpLfm0-50" target="IwtM4HSSWSZ5z5dpLfm0-52" edge="1">
          <mxGeometry relative="1" as="geometry">
            <Array as="points">
              <mxPoint x="647" y="731" />
            </Array>
          </mxGeometry>
        </mxCell>
        <mxCell id="IwtM4HSSWSZ5z5dpLfm0-64" value="create" style="edgeLabel;html=1;align=center;verticalAlign=middle;resizable=0;points=[];" parent="IwtM4HSSWSZ5z5dpLfm0-54" vertex="1" connectable="0">
          <mxGeometry x="-0.73" y="-4" relative="1" as="geometry">
            <mxPoint as="offset" />
          </mxGeometry>
        </mxCell>
        <mxCell id="IwtM4HSSWSZ5z5dpLfm0-77" style="edgeStyle=orthogonalEdgeStyle;rounded=0;orthogonalLoop=1;jettySize=auto;html=1;" parent="1" source="IwtM4HSSWSZ5z5dpLfm0-71" target="IwtM4HSSWSZ5z5dpLfm0-72" edge="1">
          <mxGeometry relative="1" as="geometry">
            <mxPoint x="1225" y="503" as="targetPoint" />
          </mxGeometry>
        </mxCell>
        <mxCell id="IwtM4HSSWSZ5z5dpLfm0-82" value="&lt;span style=&quot;background-color: rgb(255, 181, 112);&quot;&gt;init&lt;/span&gt;" style="edgeLabel;html=1;align=center;verticalAlign=middle;resizable=0;points=[];" parent="IwtM4HSSWSZ5z5dpLfm0-77" vertex="1" connectable="0">
          <mxGeometry x="0.6" y="2" relative="1" as="geometry">
            <mxPoint x="-42" y="-13" as="offset" />
          </mxGeometry>
        </mxCell>
        <mxCell id="IwtM4HSSWSZ5z5dpLfm0-83" value="&lt;span style=&quot;background-color: rgb(185, 224, 165);&quot;&gt;deploy&lt;/span&gt;" style="edgeLabel;html=1;align=center;verticalAlign=middle;resizable=0;points=[];" parent="IwtM4HSSWSZ5z5dpLfm0-77" vertex="1" connectable="0">
          <mxGeometry x="0.2" y="-3" relative="1" as="geometry">
            <mxPoint x="-18" y="9" as="offset" />
          </mxGeometry>
        </mxCell>
        <mxCell id="IwtM4HSSWSZ5z5dpLfm0-71" value="Prepare Deploy" style="ellipse;whiteSpace=wrap;html=1;" parent="1" vertex="1">
          <mxGeometry x="987" y="470" width="120" height="80" as="geometry" />
        </mxCell>
        <mxCell id="IwtM4HSSWSZ5z5dpLfm0-86" value="App Sevice1" style="sketch=0;outlineConnect=0;fontColor=#232F3E;gradientColor=none;strokeColor=#232F3E;fillColor=#ffffff;dashed=0;verticalLabelPosition=bottom;verticalAlign=top;align=center;html=1;fontSize=12;fontStyle=0;aspect=fixed;shape=mxgraph.aws4.resourceIcon;resIcon=mxgraph.aws4.container_1;" parent="1" vertex="1">
          <mxGeometry x="964" y="790" width="60" height="60" as="geometry" />
        </mxCell>
        <mxCell id="IwtM4HSSWSZ5z5dpLfm0-87" value="App Service2" style="sketch=0;outlineConnect=0;fontColor=#232F3E;gradientColor=none;strokeColor=#232F3E;fillColor=#ffffff;dashed=0;verticalLabelPosition=bottom;verticalAlign=top;align=center;html=1;fontSize=12;fontStyle=0;aspect=fixed;shape=mxgraph.aws4.resourceIcon;resIcon=mxgraph.aws4.container_1;" parent="1" vertex="1">
          <mxGeometry x="1064" y="790" width="60" height="60" as="geometry" />
        </mxCell>
        <mxCell id="IwtM4HSSWSZ5z5dpLfm0-88" value="Fargate" style="shape=partialRectangle;whiteSpace=wrap;html=1;bottom=1;right=1;left=1;top=0;fillColor=none;routingCenterX=-0.5;labelPosition=center;verticalLabelPosition=bottom;align=center;verticalAlign=top;strokeWidth=3;" parent="1" vertex="1">
          <mxGeometry x="934" y="860" width="224" height="30" as="geometry" />
        </mxCell>
        <mxCell id="IwtM4HSSWSZ5z5dpLfm0-93" value="&lt;font style=&quot;font-size: 17px;&quot;&gt;Scenario 1 :&amp;nbsp;&lt;/font&gt;&lt;span style=&quot;background-color: transparent; font-size: 17px;&quot;&gt;Bootstrapping&lt;/span&gt;" style="text;strokeColor=none;fillColor=none;html=1;fontSize=24;fontStyle=1;verticalAlign=middle;align=center;" parent="1" vertex="1">
          <mxGeometry x="80" y="430" width="250" height="40" as="geometry" />
        </mxCell>
        <mxCell id="IwtM4HSSWSZ5z5dpLfm0-94" value="&lt;font style=&quot;font-size: 17px;&quot;&gt;Scenario 2 :&amp;nbsp;&lt;/font&gt;&lt;span style=&quot;background-color: transparent; font-size: 17px;&quot;&gt;Post-provisioning&lt;/span&gt;" style="text;strokeColor=none;fillColor=none;html=1;fontSize=24;fontStyle=1;verticalAlign=middle;align=center;" parent="1" vertex="1">
          <mxGeometry x="587" y="40" width="250" height="40" as="geometry" />
        </mxCell>
        <mxCell id="IwtM4HSSWSZ5z5dpLfm0-96" value="Route53" style="rounded=1;whiteSpace=wrap;html=1;" parent="1" vertex="1">
          <mxGeometry x="387" y="370" width="120" height="30" as="geometry" />
        </mxCell>
        <mxCell id="IwtM4HSSWSZ5z5dpLfm0-98" value="ACM" style="rounded=1;whiteSpace=wrap;html=1;" parent="1" vertex="1">
          <mxGeometry x="387" y="340" width="120" height="30" as="geometry" />
        </mxCell>
        <mxCell id="IwtM4HSSWSZ5z5dpLfm0-101" style="edgeStyle=orthogonalEdgeStyle;rounded=0;orthogonalLoop=1;jettySize=auto;html=1;" parent="1" source="IwtM4HSSWSZ5z5dpLfm0-100" target="IwtM4HSSWSZ5z5dpLfm0-86" edge="1">
          <mxGeometry relative="1" as="geometry">
            <mxPoint x="977" y="850" as="targetPoint" />
            <Array as="points">
              <mxPoint x="447" y="820" />
            </Array>
          </mxGeometry>
        </mxCell>
        <mxCell id="IwtM4HSSWSZ5z5dpLfm0-100" value="Event Bridge" style="rounded=1;whiteSpace=wrap;html=1;" parent="1" vertex="1">
          <mxGeometry x="384.5" y="660" width="125" height="60" as="geometry" />
        </mxCell>
        <mxCell id="IwtM4HSSWSZ5z5dpLfm0-105" value="hwkim" style="points=[];aspect=fixed;html=1;align=left;shadow=0;dashed=0;fillColor=#FF6A00;strokeColor=none;shape=mxgraph.alibaba_cloud.user;labelPosition=right;verticalLabelPosition=middle;verticalAlign=middle;fontSize=21;" parent="1" vertex="1">
          <mxGeometry x="337" y="630" width="30" height="30" as="geometry" />
        </mxCell>
        <mxCell id="IwtM4HSSWSZ5z5dpLfm0-107" value="ganji" style="points=[];aspect=fixed;html=1;align=left;shadow=0;dashed=0;fillColor=#FF6A00;strokeColor=none;shape=mxgraph.alibaba_cloud.user;labelPosition=right;verticalLabelPosition=middle;verticalAlign=middle;fontSize=21;" parent="1" vertex="1">
          <mxGeometry x="354.5" y="300" width="30" height="30" as="geometry" />
        </mxCell>
        <mxCell id="IwtM4HSSWSZ5z5dpLfm0-111" value="djcho &amp;amp; ohsc" style="points=[];aspect=fixed;html=1;align=left;shadow=0;dashed=0;fillColor=#FF6A00;strokeColor=none;shape=mxgraph.alibaba_cloud.user;labelPosition=right;verticalLabelPosition=middle;verticalAlign=middle;fontSize=21;" parent="1" vertex="1">
          <mxGeometry x="904" y="170" width="30" height="30" as="geometry" />
        </mxCell>
        <mxCell id="IwtM4HSSWSZ5z5dpLfm0-113" value="zlor26" style="points=[];aspect=fixed;html=1;align=left;shadow=0;dashed=0;fillColor=#FF6A00;strokeColor=none;shape=mxgraph.alibaba_cloud.user;labelPosition=right;verticalLabelPosition=middle;verticalAlign=middle;fontSize=21;" parent="1" vertex="1">
          <mxGeometry x="625" y="1063" width="30" height="30" as="geometry" />
        </mxCell>
        <mxCell id="IwtM4HSSWSZ5z5dpLfm0-114" value="&lt;div&gt;&lt;span style=&quot;background-color: transparent; color: light-dark(rgb(0, 0, 0), rgb(255, 255, 255));&quot;&gt;lose1719&lt;/span&gt;&lt;/div&gt;" style="points=[];aspect=fixed;html=1;align=left;shadow=0;dashed=0;fillColor=#FF6A00;strokeColor=none;shape=mxgraph.alibaba_cloud.user;labelPosition=right;verticalLabelPosition=middle;verticalAlign=middle;fontSize=21;" parent="1" vertex="1">
          <mxGeometry x="95" y="30" width="30" height="30" as="geometry" />
        </mxCell>
        <mxCell id="IwtM4HSSWSZ5z5dpLfm0-122" value="DMS" style="rounded=1;whiteSpace=wrap;html=1;" parent="1" vertex="1">
          <mxGeometry x="646.5" y="1018" width="120" height="30" as="geometry" />
        </mxCell>
        <mxCell id="IwtM4HSSWSZ5z5dpLfm0-123" style="edgeStyle=orthogonalEdgeStyle;rounded=0;orthogonalLoop=1;jettySize=auto;html=1;entryX=0.5;entryY=1;entryDx=0;entryDy=0;exitX=0.5;exitY=0;exitDx=0;exitDy=0;strokeWidth=3;" parent="1" edge="1" source="IwtM4HSSWSZ5z5dpLfm0-122">
          <mxGeometry relative="1" as="geometry">
            <mxPoint x="707" y="859" as="sourcePoint" />
            <mxPoint x="706.69" y="789" as="targetPoint" />
          </mxGeometry>
        </mxCell>
        <mxCell id="IwtM4HSSWSZ5z5dpLfm0-124" value="Origin Data Sync" style="edgeLabel;html=1;align=center;verticalAlign=middle;resizable=0;points=[];" parent="IwtM4HSSWSZ5z5dpLfm0-123" vertex="1" connectable="0">
          <mxGeometry x="-0.0471" relative="1" as="geometry">
            <mxPoint y="8" as="offset" />
          </mxGeometry>
        </mxCell>
        <mxCell id="_8GRGcNNE5g4Zsb68gkF-2" value="" style="rounded=1;whiteSpace=wrap;html=1;fillColor=#ffe6cc;strokeColor=#d79b00;arcSize=7;" vertex="1" parent="1">
          <mxGeometry x="1254" y="445" width="168" height="155" as="geometry" />
        </mxCell>
        <mxCell id="_8GRGcNNE5g4Zsb68gkF-1" value="1. Terraform GIT 저장소 생성&lt;div&gt;&lt;span style=&quot;background-color: transparent; color: light-dark(rgb(0, 0, 0), rgb(255, 255, 255));&quot;&gt;&amp;nbsp;- OfficeNEXT FE, BE 의 GIT Submodule로 등록&lt;/span&gt;&lt;/div&gt;&lt;div&gt;&lt;span style=&quot;background-color: transparent; color: light-dark(rgb(0, 0, 0), rgb(255, 255, 255));&quot;&gt;2. CI/CD 스크립트 작업&lt;/span&gt;&lt;/div&gt;&lt;div&gt;&lt;span style=&quot;background-color: transparent; color: light-dark(rgb(0, 0, 0), rgb(255, 255, 255));&quot;&gt;&amp;nbsp;- CI/CD 배포 파이프라인에 Terraform deploy 스크립트 실행하도록 수정&lt;/span&gt;&lt;/div&gt;" style="text;html=1;align=left;verticalAlign=top;whiteSpace=wrap;rounded=0;labelPosition=center;verticalLabelPosition=middle;" vertex="1" parent="1">
          <mxGeometry x="1062" y="170" width="370" height="76" as="geometry" />
        </mxCell>
        <mxCell id="IwtM4HSSWSZ5z5dpLfm0-76" value="TaskDef::InitService&lt;br&gt;- Run Seeder" style="rounded=1;whiteSpace=wrap;html=1;fillColor=#ffe6cc;strokeColor=#d79b00;" parent="1" vertex="1">
          <mxGeometry x="1262" y="454" width="150" height="60" as="geometry" />
        </mxCell>
        <mxCell id="IwtM4HSSWSZ5z5dpLfm0-75" value="TaskDef::App&lt;br&gt;- Run Migrate" style="rounded=1;whiteSpace=wrap;html=1;fillColor=#d5e8d4;strokeColor=#82b366;" parent="1" vertex="1">
          <mxGeometry x="1262" y="526" width="147" height="64" as="geometry" />
        </mxCell>
        <mxCell id="_8GRGcNNE5g4Zsb68gkF-4" value="CloudeWatch" style="shape=cylinder3;whiteSpace=wrap;html=1;boundedLbl=1;backgroundOutline=1;size=15;" vertex="1" parent="1">
          <mxGeometry x="1320" y="809.75" width="81" height="101" as="geometry" />
        </mxCell>
        <mxCell id="_8GRGcNNE5g4Zsb68gkF-5" value="S3" style="shape=cylinder3;whiteSpace=wrap;html=1;boundedLbl=1;backgroundOutline=1;size=15;" vertex="1" parent="1">
          <mxGeometry x="1408" y="809.75" width="80" height="101" as="geometry" />
        </mxCell>
        <mxCell id="_8GRGcNNE5g4Zsb68gkF-8" value="ohsc" style="points=[];aspect=fixed;html=1;align=left;shadow=0;dashed=0;fillColor=#FF6A00;strokeColor=none;shape=mxgraph.alibaba_cloud.user;labelPosition=right;verticalLabelPosition=middle;verticalAlign=middle;fontSize=21;" vertex="1" parent="1">
          <mxGeometry x="1284" y="737" width="30" height="30" as="geometry" />
        </mxCell>
        <mxCell id="_8GRGcNNE5g4Zsb68gkF-10" value="&lt;b&gt;* Only Once&lt;/b&gt;" style="text;html=1;align=center;verticalAlign=middle;whiteSpace=wrap;rounded=0;" vertex="1" parent="1">
          <mxGeometry x="766.5" y="1005" width="91" height="22" as="geometry" />
        </mxCell>
        <mxCell id="_8GRGcNNE5g4Zsb68gkF-11" value="&lt;font style=&quot;font-size: 45px;&quot;&gt;?&lt;/font&gt;" style="text;strokeColor=none;fillColor=none;html=1;fontSize=24;fontStyle=1;verticalAlign=middle;align=center;" vertex="1" parent="1">
          <mxGeometry x="1457" y="746" width="64" height="48" as="geometry" />
        </mxCell>
        <mxCell id="_8GRGcNNE5g4Zsb68gkF-13" style="edgeStyle=orthogonalEdgeStyle;rounded=0;orthogonalLoop=1;jettySize=auto;html=1;entryX=0;entryY=0.5;entryDx=0;entryDy=0;dashed=1;" edge="1" parent="1" source="_8GRGcNNE5g4Zsb68gkF-12" target="IwtM4HSSWSZ5z5dpLfm0-122">
          <mxGeometry relative="1" as="geometry" />
        </mxCell>
        <mxCell id="_8GRGcNNE5g4Zsb68gkF-12" value="Lagacy Databases" style="shape=cylinder3;whiteSpace=wrap;html=1;boundedLbl=1;backgroundOutline=1;size=15;" vertex="1" parent="1">
          <mxGeometry x="482" y="989.5" width="74" height="87" as="geometry" />
        </mxCell>
      </root>
    </mxGraphModel>
  </diagram>
</mxfile>
